PathFileType	4	(X/Y/Z)	C:\Users\Biomechanik\Documents\powerlifting_model\powerlifing_model\simulations\Athlete_03\25_03_31\Walking_01\c3dfile.trc
DataRate	CameraRate	NumFrames	NumMarkers	Units	OrigDataRate	OrigDataStartFrame	OrigNumFrames
200.0	200.0	4	53	mm	200.0	844	239	
Frame#	Time	GLAB			RFHD			LFHD			C7			T6			SPINMOL			SPINM2			SPINM3			T12			BELTOL			BELT2			BELT3			SACROL			SACR2			SACR3			LTHOL			LTH2			LTH3			LSHAOL			LSHA2			LSHA3			LHEE			LTOE			LM5			RTHOL			RTH2			RTH3			RSHAOL			RSHA2			RSHA3			RHEE			RTOE			RM5			STRN			XIPH			LACR			LUAOL			LUA2			LUA3			LLAOL			LLA2			LLA3			LWRR			LWRU			RACR			RUAOL			RUA2			RUA3			RLAOL			RLA2			RLA3			RWRR			RWRU			
		X1	Y1	Z1	X2	Y2	Z2	X3	Y3	Z3	X4	Y4	Z4	X5	Y5	Z5	X6	Y6	Z6	X7	Y7	Z7	X8	Y8	Z8	X9	Y9	Z9	X10	Y10	Z10	X11	Y11	Z11	X12	Y12	Z12	X13	Y13	Z13	X14	Y14	Z14	X15	Y15	Z15	X16	Y16	Z16	X17	Y17	Z17	X18	Y18	Z18	X19	Y19	Z19	X20	Y20	Z20	X21	Y21	Z21	X22	Y22	Z22	X23	Y23	Z23	X24	Y24	Z24	X25	Y25	Z25	X26	Y26	Z26	X27	Y27	Z27	X28	Y28	Z28	X29	Y29	Z29	X30	Y30	Z30	X31	Y31	Z31	X32	Y32	Z32	X33	Y33	Z33	X34	Y34	Z34	X35	Y35	Z35	X36	Y36	Z36	X37	Y37	Z37	X38	Y38	Z38	X39	Y39	Z39	X40	Y40	Z40	X41	Y41	Z41	X42	Y42	Z42	X43	Y43	Z43	X44	Y44	Z44	X45	Y45	Z45	X46	Y46	Z46	X47	Y47	Z47	X48	Y48	Z48	X49	Y49	Z49	X50	Y50	Z50	X51	Y51	Z51	X52	Y52	Z52	X53	Y53	Z53	
844	4.215	180.7388	1589.3088	-501.26328	242.88826	1617.5919	-449.24368	105.1859	1606.2257	-458.8699	178.13779	1424.7052	-278.69818	183.06276	1256.7179	-219.97939	163.74144	1215.7228	-211.98058	213.45532	1210.2478	-205.75723	182.25838	1152.2493	-215.88553	186.85753	1086.1063	-240.63937	174.34892	1049.0638	-203.48254	224.87177	1047.7882	-202.60225	196.46964	987.1792	-199.0043	169.01096	938.1275	-216.98363	220.16927	934.11462	-216.46312	190.18677	876.29755	-203.85167	15.942281	658.71558	-392.39761	37.941162	590.00275	-359.86786	29.796587	601.08203	-407.78668	33.849026	315.26617	-453.36398	44.66293	248.85925	-410.48001	43.561413	254.24695	-460.35269	138.26476	65.457832	-402.59491	129.08611	45.549137	-622.42804	30.8797	32.030148	-570.36542	390.72086	666.43219	-284.6015	416.50595	611.92285	-336.6553	389.64511	605.69904	-294.98627	401.01755	407.80957	-184.9189	396.32922	335.30246	-153.66789	378.42709	377.89502	-135.18643	257.1452	285.81415	17.463568	282.46896	77.896065	-12.19211	374.16089	127.27439	30.091925	184.41925	1322.7993	-448.63962	192.63609	1178.5149	-464.22195	5.8685546	1377.9248	-360.41614	-89.090569	1218.6626	-342.47629	-104.96264	1157.656	-322.99924	-84.594955	1158.7704	-369.90494	-128.87173	956.04254	-334.03912	-110.63614	893.75391	-288.54688	-129.65709	894.30688	-334.54666	-135.41319	791.39178	-344.90036	-69.762733	786.00513	-389.78467	349.56586	1386.5167	-363.23233	453.85724	1243.762	-359.15091	463.23904	1185.1274	-388.6452	479.52579	1185.6744	-340.00961	509.27026	972.26471	-424.21417	525.43628	944.97937	-497.87445	506.42978	920.13055	-458.4339	507.93063	860.05994	-527.35541	433.99307	867.91394	-561.80023
845	4.22	179.89278	1590.3767	-507.93512	242.02414	1618.7117	-455.91983	104.32281	1607.3267	-465.58084	177.28552	1425.8497	-285.29248	182.03448	1257.7943	-226.62123	162.67554	1216.8033	-218.6414	212.38261	1211.2926	-212.39964	181.16226	1153.323	-222.60262	185.78166	1087.2163	-247.41895	173.03163	1049.9469	-210.10315	223.55464	1048.671	-209.14851	195.14629	988.05829	-205.64709	168.01172	939.29712	-223.66611	219.13947	935.13818	-223.33334	189.07402	877.43243	-210.5434	15.271773	659.42017	-396.97235	37.146954	591.04004	-363.63666	29.133966	601.67822	-411.61765	33.794323	315.28769	-454.58102	44.77821	249.16447	-411.31732	43.466228	254.23213	-461.22229	138.43756	65.567467	-402.69891	129.16217	45.464455	-622.47333	30.854235	32.096367	-570.34546	390.17789	666.55487	-294.64163	416.33752	612.92395	-347.4729	389.34418	605.95007	-306.02176	400.23633	409.70358	-198.41077	395.52917	337.41229	-166.64816	377.34186	380.06384	-148.62952	254.8821	288.71204	4.4084678	282.20718	80.571976	-25.377489	372.89136	130.98575	17.638992	183.70131	1324.0104	-455.26526	191.83627	1179.7444	-470.91919	5.0728135	1379.1738	-367.20831	-90.064873	1219.9463	-350.06891	-106.02773	1158.8942	-330.88861	-85.496246	1160.1677	-377.72601	-129.93938	957.12122	-343.39508	-111.8437	894.41705	-298.42059	-130.57791	895.38324	-344.52594	-136.01704	792.52997	-355.90146	-70.198318	787.82928	-400.72217	348.86398	1387.589	-369.6044	453.04865	1244.7306	-365.10486	462.42081	1186.0295	-394.43582	478.78864	1186.7151	-345.82098	508.68536	972.60101	-427.90234	525.2146	944.24078	-501.11847	506.17087	919.92059	-461.33948	508.17233	858.88196	-529.36084	434.15549	865.65002	-563.88263
846	4.225	179.09248	1591.451	-514.58179	241.21104	1619.8313	-462.57153	103.50874	1608.4384	-472.26266	176.47258	1427.0026	-291.86246	181.02805	1258.8805	-233.23039	161.63058	1217.8944	-225.26956	211.33028	1212.3469	-219.00743	180.08549	1154.4069	-229.28467	184.72537	1088.3385	-254.1604	171.69885	1050.9066	-216.72856	222.22183	1049.6244	-215.68747	193.79924	989.01422	-212.26085	167.08145	940.49335	-230.30594	218.1869	936.21649	-230.15614	188.05949	878.60431	-217.20105	14.620205	660.12793	-401.45169	36.336422	592.09308	-367.28235	28.459723	602.28442	-415.33588	33.698986	315.30463	-455.75876	44.806969	249.45076	-412.12988	43.340511	254.21846	-462.06491	138.59325	65.673676	-402.78662	129.20969	45.405552	-622.50781	30.817347	32.142555	-570.32275	389.62305	666.78784	-304.61105	416.1727	614.06323	-358.19186	389.02457	606.3385	-316.98752	399.32843	411.65387	-211.85469	394.64328	339.55777	-179.63986	376.14731	382.23279	-162.05353	252.62442	291.21127	-8.6152725	281.81546	83.104538	-39.327106	371.60751	134.28435	4.437861	183.0177	1325.2208	-461.85922	191.062	1180.9734	-477.58011	4.3123565	1380.4338	-373.95648	-91.007622	1221.248	-357.62186	-107.0643	1160.1516	-338.74692	-86.376457	1161.5891	-385.5195	-130.9902	958.23328	-352.77707	-113.04086	895.10809	-308.3349	-131.48141	896.50006	-354.54324	-136.59949	793.71918	-366.96011	-70.624107	789.72028	-411.71933	348.20432	1388.6442	-375.93597	452.26816	1245.6721	-371.01596	461.63144	1186.9124	-400.19415	478.06985	1187.7234	-351.59683	508.14282	972.97064	-431.58725	525.01434	943.55249	-504.35065	505.95667	919.75653	-464.2327	508.45718	857.76471	-531.33459	434.35297	863.4259	-565.87762
847	4.23	178.33746	1592.5282	-521.20453	240.4491	1620.9478	-469.20001	102.74345	1609.5582	-478.91626	175.69806	1428.1599	-298.40845	180.04436	1259.9727	-239.80898	160.60735	1218.9926	-231.86806	210.29903	1213.406	-225.58363	179.02808	1155.4969	-235.935	183.68611	1089.4691	-260.86655	170.35869	1051.9443	-223.36331	220.8813	1050.6498	-222.22511	192.43582	990.04834	-218.85089	166.22063	941.71069	-236.90579	217.31215	937.34692	-236.93465	187.14757	879.80817	-223.83	13.995314	660.83405	-405.83493	35.533577	593.16205	-370.80646	27.786131	602.89575	-418.94177	33.568062	315.3172	-456.91348	44.753006	249.71841	-412.93216	43.19154	254.20576	-462.89575	138.73306	65.778603	-402.85989	129.23288	45.366745	-622.53302	30.770691	32.170494	-570.29779	389.06006	667.12085	-314.51691	416.0054	615.32904	-368.82248	388.68881	606.85431	-327.88696	398.28992	413.64725	-225.24605	393.68127	341.72476	-192.63554	374.84271	384.38629	-175.45277	250.3907	293.30054	-21.619026	281.29123	85.462044	-54.000443	370.30722	137.13754	-9.4594526	182.36623	1326.4296	-468.42276	190.31204	1182.2006	-484.2063	3.5864089	1381.7036	-380.65906	-91.919716	1222.5664	-365.13358	-108.07137	1161.4248	-346.57355	-87.23497	1163.0336	-393.28448	-132.02171	959.37994	-362.18332	-114.22453	895.82935	-318.2876	-132.36559	897.6593	-364.59555	-137.1601	794.96259	-378.07175	-71.040047	791.68005	-422.7688	347.58344	1389.6849	-382.23108	451.51538	1246.5887	-376.8862	460.86948	1187.7734	-405.91727	477.36722	1188.7017	-357.33313	507.6402	973.37537	-435.26639	524.83496	942.9162	-507.56836	505.78433	919.64069	-467.11227	508.78351	856.71106	-533.27698	434.58679	861.24841	-567.7879
